<?xml version="1.0" encoding="UTF-8"?>
<svg xmlns="http://www.w3.org/2000/svg" xmlns:xlink="http://www.w3.org/1999/xlink" width="512px" height="512px" viewBox="0 0 512 512" version="1.1">
<defs>
<linearGradient id="linear0" gradientUnits="userSpaceOnUse" x1="0" y1="0" x2="1" y2="1" gradientTransform="matrix(512,0,0,512,0,0)">
<stop offset="0" style="stop-color:rgb(91.764706%,34.509804%,4.705882%);stop-opacity:1;"/>
<stop offset="1" style="stop-color:rgb(72.54902%,10.980392%,10.980392%);stop-opacity:1;"/>
</linearGradient>
</defs>
<g id="surface1">
<path style=" stroke:none;fill-rule:nonzero;fill:url(#linear0);" d="M 512 256 C 512 114.613281 397.386719 0 256 0 C 114.613281 0 0 114.613281 0 256 C 0 397.386719 114.613281 512 256 512 C 397.386719 512 512 397.386719 512 256 Z M 512 256 "/>
<path style="fill:none;stroke-width:2;stroke-linecap:round;stroke-linejoin:round;stroke:rgb(100%,100%,100%);stroke-opacity:1;stroke-miterlimit:4;" d="M 8.500122 14.500122 C 9.880737 14.500122 10.999878 13.380615 10.999878 12 C 10.999878 10.620117 10.5 10.000122 10.000122 9 C 8.927856 6.856934 9.776001 4.946045 12 3 C 12.499878 5.500122 13.999878 7.899902 16.000122 9.499878 C 18 11.099854 19.000122 13.000122 19.000122 15 C 19.000122 18.866089 15.866089 22.000122 12 22.000122 C 8.133911 22.000122 4.999878 18.866089 4.999878 15 C 4.999878 13.847168 5.433105 12.706055 6 12 C 6 13.380615 7.119141 14.500122 8.500122 14.500122 Z M 8.500122 14.500122 " transform="matrix(10.666667,0,0,10.666667,128,128)"/>
</g>
</svg>
